#!OML:ASF H:\Pregnant\Project 1\Capture day 1\Session 1\femalepreg.ASF
:FULLY-SPECIFIED
:DEGREES
641
root -6.05884 16.0325 -15.8002 205.192 8.40925 -177.633
lowerback -16.6741 1.16961 10.081
upperback -6.38556 0.907497 0.486646
thorax 2.52864 0.756522 -5.00002
lowerneck -27.3768 6.72902 11.2503
upperneck 34.4566 7.70754 -3.3184
head 18.0726 4.59297 -1.47752
rclavicle -4.42296e-015 -2.14687e-014
rhumerus 0.387258 31.0264 -73.0429
rradius 62.7293
rwrist -39.6036
rhand -28.3221 -57.8618
rfingers 7.12502
rthumb -1.697 -87.8348
lclavicle -4.42296e-015 -2.14687e-014
lhumerus -13.7363 -21.8885 60.2132
lradius 61.9257
lwrist 61.597
lhand -32.7555 26.681
lfingers 7.12502
lthumb -5.97813 56.5766
rfemur -37.0415 12.4192 21.3294
rtibia 36.9345
rfoot -18.9942 -15.4865
rtoes -15.9171
lfemur -55.0143 -6.08682 -10.4025
ltibia 18.9072
lfoot -1.5112 19.1689
ltoes -41.7901
642
root -6.06063 16.0231 -15.9181 205.102 8.3289 -177.575
lowerback -16.7467 1.16771 10.0093
upperback -6.37941 0.908632 0.419938
thorax 2.57535 0.759039 -5.03008
lowerneck -27.4563 6.80559 11.4481
upperneck 34.7472 7.86894 -3.50113
head 18.2926 4.67517 -1.54718
rclavicle -2.35311e-014 1.35174e-014
rhumerus 0.274504 31.0026 -73.1056
rradius 62.6751
rwrist -39.6206
rhand -28.2686 -57.9861
rfingers 7.12502
rthumb -1.64536 -87.9595
lclavicle -2.35311e-014 1.35174e-014
lhumerus -13.6991 -22.0384 60.2253
lradius 61.8518
lwrist 61.6204
lhand -32.8127 26.8176
lfingers 7.12502
lthumb -6.03334 56.7117
rfemur -36.3295 12.3505 21.4741
rtibia 36.7742
rfoot -19.2386 -15.6187
rtoes -16.2431
lfemur -54.8627 -6.32517 -10.0834
ltibia 18.223
lfoot -1.26989 19.55
ltoes -41.6846
643
root -6.06327 16.0125 -16.0363 205.015 8.24362 -177.501
lowerback -16.8283 1.1702 9.94313
upperback -6.37366 0.914545 0.353833
thorax 2.62699 0.764388 -5.06159
lowerneck -27.4994 6.82125 11.5458
upperneck 34.9748 7.95388 -3.62171
head 18.4528 4.72115 -1.59264
rclavicle 7.28049e-015 -3.29983e-014
rhumerus 0.131479 30.938 -73.1859
rradius 62.6348
rwrist -39.6219
rhand -28.227 -58.1202
rfingers 7.12502
rthumb -1.60519 -88.0939
lclavicle 7.28049e-015 -3.29983e-014
lhumerus -13.6525 -22.2055 60.2348
lradius 61.7797
lwrist 61.6409
lhand -32.8717 26.9538
lfingers 7.12502
lthumb -6.09037 56.8463
rfemur -35.6222 12.2824 21.6334
rtibia 36.6237
rfoot -19.4891 -15.7458
rtoes -16.5666
lfemur -54.7199 -6.53898 -9.79291
ltibia 17.7299
lfoot -1.13492 19.831
ltoes -41.5346
644
root -6.06667 16.0009 -16.1552 204.922 8.15688 -177.412
lowerback -16.9088 1.17836 9.88031
upperback -6.37012 0.92847 0.288984
thorax 2.67682 0.773794 -5.09212
lowerneck -27.5458 6.7998 11.6205
upperneck 35.1992 8.00294 -3.7662
head 18.6099 4.74706 -1.65498
rclavicle 1.18774e-014 -2.50469e-014
rhumerus -0.0312544 30.857 -73.2683
rradius 62.5926
rwrist -39.6332
rhand -28.1866 -58.2554
rfingers 7.12502
rthumb -1.56615 -88.2294
lclavicle 1.18774e-014 -2.50469e-014
lhumerus -13.6012 -22.3992 60.2462
lradius 61.7132
lwrist 61.6678
lhand -32.9316 27.0723
lfingers 7.12502
lthumb -6.14816 56.9631
rfemur -34.9056 12.2174 21.808
rtibia 36.474
rfoot -19.7351 -15.8692
rtoes -16.8898
lfemur -54.5723 -6.69638 -9.57492
ltibia 17.4294
lfoot -1.0682 19.98
ltoes -41.3843
645
root -6.07092 15.9881 -16.2747 204.833 8.0656 -177.293
lowerback -16.994 1.19164 9.83437
upperback -6.37168 0.947853 0.230981
thorax 2.72414 0.786244 -5.12376
lowerneck -27.5985 6.77033 11.6963
upperneck 35.4125 8.03898 -3.91797
head 18.763 4.76642 -1.72482
rclavicle -7.62836e-015 -6.36111e-015
rhumerus -0.208521 30.7802 -73.3449
rradius 62.5564
rwrist -39.6611
rhand -28.2948 -58.2323
rfingers 7.12502
rthumb -1.67066 -88.2055
lclavicle -7.62836e-015 -6.36111e-015
lhumerus -13.5569 -22.6105 60.261
lradius 61.6579
lwrist 61.6989
lhand -32.9838 27.1959
lfingers 7.12502
lthumb -6.19858 57.0852
rfemur -34.184 12.1551 22.011
rtibia 36.3161
rfoot -19.974 -15.9801
rtoes -17.2091
lfemur -54.431 -6.78193 -9.42751
ltibia 17.3237
lfoot -1.02205 19.99
ltoes -41.2789
646
root -6.07591 15.974 -16.3954 204.741 7.9734 -177.15
lowerback -17.0848 1.21404 9.80058
upperback -6.37492 0.977755 0.177024
thorax 2.77406 0.804316 -5.15578
lowerneck -27.6248 6.73565 11.7212
upperneck 35.5928 8.06735 -4.01314
head 18.8839 4.78329 -1.76268
rclavicle -4.65902e-015 1.96797e-014
rhumerus -0.40811 30.6822 -73.4223
rradius 62.5112
rwrist -39.6792
rhand -28.4149 -57.7426
rfingers 7.12502
rthumb -1.78663 -87.7148
lclavicle -4.65902e-015 1.96797e-014
lhumerus -13.5085 -22.8525 60.2778
lradius 61.6109
lwrist 61.7429
lhand -33.0399 27.2677
lfingers 7.12502
lthumb -6.25269 57.1554
rfemur -33.4427 12.1001 22.2374
rtibia 36.1418
rfoot -20.1972 -16.0895
rtoes -17.547
lfemur -54.2866 -6.78278 -9.37358
ltibia 17.4108
lfoot -0.920261 19.8467
ltoes -41.2579
647
root -6.08175 15.9586 -16.5176 204.643 7.88265 -176.981
lowerback -17.1809 1.24483 9.77825
upperback -6.38061 1.01743 0.128128
thorax 2.8254 0.82762 -5.18681
lowerneck -27.6043 6.7001 11.7019
upperneck 35.7319 8.09688 -4.05866
head 18.9638 4.80109 -1.77074
rclavicle -7.4917e-015 -3.43897e-014
rhumerus -0.669383 30.5363 -73.5217
rradius 62.4871
rwrist -39.6526
rhand -28.5432 -56.8718
rfingers 7.12502
rthumb -1.91056 -86.843
lclavicle -7.4917e-015 -3.43897e-014
lhumerus -13.4611 -23.1257 60.2988
lradius 61.574
lwrist 61.7996
lhand -33.0898 27.3367
lfingers 7.12502
lthumb -6.30087 57.223
rfemur -32.6742 12.0523 22.4855
rtibia 35.9462
rfoot -20.4088 -16.1889
rtoes -17.8719
lfemur -54.1326 -6.67637 -9.43834
ltibia 17.6785
lfoot -0.693699 19.5324
ltoes -41.3462
648
root -6.08834 15.9419 -16.6412 204.533 7.79332 -176.791
lowerback -17.279 1.2817 9.76119
upperback -6.38199 1.06331 0.0858479
thorax 2.88341 0.854344 -5.21231
lowerneck -27.5412 6.66925 11.6284
upperneck 35.8295 8.13417 -4.04228
head 19.002 4.82224 -1.73954
rclavicle 1.06723e-014 -7.95139e-016
rhumerus -0.925579 30.4053 -73.5988
rradius 62.4569
rwrist -39.6365
rhand -28.6404 -55.7591
rfingers 7.12502
rthumb -2.00441 -85.7294
lclavicle 1.06723e-014 -7.95139e-016
lhumerus -13.4074 -23.4151 60.3227
lradius 61.5492
lwrist 61.867
lhand -33.1314 27.4247
lfingers 7.12502
lthumb -6.3411 57.3098
rfemur -31.871 12.0149 22.7535
rtibia 35.7294
rfoot -20.6031 -16.2857
rtoes -18.2064
lfemur -53.9585 -6.45257 -9.63313
ltibia 18.099
lfoot -0.259173 19.0414
ltoes -41.5359
649
root -6.09561 15.9242 -16.7663 204.406 7.70689 -176.587
lowerback -17.3725 1.32078 9.73769
upperback -6.37807 1.11228 0.0504701
thorax 2.94519 0.882679 -5.22599
lowerneck -27.4376 6.64517 11.5104
upperneck 35.886 8.18363 -3.98005
head 19.0011 4.84731 -1.67724
rclavicle 3.01469e-014 1.47101e-014
rhumerus -1.18764 30.2753 -73.6613
rradius 62.4245
rwrist -39.6126
rhand -28.7083 -54.5181
rfingers 7.12502
rthumb -2.07002 -84.4878
lclavicle 3.01469e-014 1.47101e-014
lhumerus -13.3478 -23.7078 60.3542
lradius 61.5334
lwrist 61.9418
lhand -33.1485 27.5607
lfingers 7.12502
lthumb -6.35753 57.4453
rfemur -31.0318 11.994 23.0316
rtibia 35.498
rfoot -20.7782 -16.3881
rtoes -18.5521
lfemur -53.764 -6.13661 -9.93573
ltibia 18.6355
lfoot 0.456305 18.4264
ltoes -41.8041
650
root -6.10343 15.9059 -16.8926 204.261 7.61999 -176.384
lowerback -17.4573 1.35504 9.69109
upperback -6.37025 1.15828 0.0224638
thorax 3.00617 0.90948 -5.21917
lowerneck -27.325 6.61968 11.3928
upperneck 35.9293 8.23787 -3.93745
head 18.992 4.87098 -1.62363
rclavicle 1.50207e-014 -5.96354e-015
rhumerus -1.42946 30.1763 -73.6946
rradius 62.376
rwrist -39.6005
rhand -28.7469 -53.4726
rfingers 7.12502
rthumb -2.10728 -83.4419
lclavicle 1.50207e-014 -5.96354e-015
lhumerus -13.291 -23.9921 60.3998
lradius 61.525
lwrist 62.006
lhand -33.1548 27.7347
lfingers 7.12502
lthumb -6.36365 57.6191
rfemur -30.1659 11.9948 23.3066
rtibia 35.2646
rfoot -20.9261 -16.5082
rtoes -18.9223
lfemur -53.5574 -5.77244 -10.3079
ltibia 19.2413
lfoot 1.48688 17.7253
ltoes -42.1093
651
root -6.11176 15.8873 -17.0194 204.099 7.5261 -176.197
lowerback -17.5262 1.37853 9.60515
upperback -6.36071 1.19716 -0.00294359
thorax 3.05973 0.932303 -5.18877
lowerneck -27.23 6.58996 11.2788
upperneck 35.9737 8.29043 -3.91973
head 18.9896 4.89027 -1.58264
rclavicle -8.81796e-015 -1.13307e-014
rhumerus -1.64857 30.0941 -73.7101
rradius 62.293
rwrist -39.5818
rhand -28.7326 -52.7526
rfingers 7.12502
rthumb -2.09347 -82.7221
lclavicle -8.81796e-015 -1.13307e-014
lhumerus -13.238 -24.2603 60.4643
lradius 61.5235
lwrist 62.0589
lhand -33.1602 27.9112
lfingers 7.12502
lthumb -6.36886 57.7955
rfemur -29.2921 12.0198 23.5618
rtibia 35.0491
rfoot -21.0311 -16.6695
rtoes -19.3563
lfemur -53.3511 -5.41328 -10.7071
ltibia 19.8656
lfoot 2.80249 16.9489
ltoes -42.3969
